<svg data-v-0dd9719b="" version="1.0" xmlns="http://www.w3.org/2000/svg" xmlns:xlink="http://www.w3.org/1999/xlink" width="100%" height="100%" viewBox="0 0 340.000000 250.000000" preserveAspectRatio="xMidYMid meet" color-interpolation-filters="sRGB" style="margin: auto;"> <rect data-v-0dd9719b="" x="0" y="0" width="100%" height="100%" fill="#ffffff" fill-opacity="1" class="background"></rect> <rect data-v-0dd9719b="" x="0" y="0" width="100%" height="100%" fill="url(#watermark)" fill-opacity="1" class="watermarklayer"></rect> <g data-v-0dd9719b="" fill="#391561" class="icon-text-wrapper icon-svg-group iconsvg" transform="translate(55.38500213623047,94.50374794006348)"><g class="iconsvg-imagesvg" transform="translate(0,0.9704322814941406)"><g><rect fill="#391561" fill-opacity="0" stroke-width="2" x="0" y="0" width="60" height="59.051630809204184" class="image-rect"></rect> <svg filter="url(#colors5834717783)" x="0" y="0" width="60" height="59.051630809204184" filtersec="colorsf4500889230" class="image-svg-svg primary" style="overflow: visible;"><svg xmlns="http://www.w3.org/2000/svg" xmlns:xlink="http://www.w3.org/1999/xlink" version="1.1" x="0px" y="0px" viewBox="4.065000057220459 5.267000198364258 151.87013244628906 149.4700164794922" xml:space="preserve"><path d="M38.165,131.193c1.381,0,2.5-1.119,2.5-2.5v-6.244c0-1.381-1.119-2.5-2.5-2.5s-2.5,1.119-2.5,2.5v6.244  C35.665,130.074,36.784,131.193,38.165,131.193z"></path><path d="M59.082,131.193c1.381,0,2.5-1.119,2.5-2.5v-6.244c0-1.381-1.119-2.5-2.5-2.5s-2.5,1.119-2.5,2.5v6.244  C56.582,130.074,57.702,131.193,59.082,131.193z"></path><path d="M80,119.949c-1.381,0-2.5,1.119-2.5,2.5v6.244c0,1.381,1.119,2.5,2.5,2.5s2.5-1.119,2.5-2.5v-6.244  C82.5,121.068,81.381,119.949,80,119.949z"></path><path d="M100.705,131.193c1.381,0,2.5-1.119,2.5-2.5v-6.244c0-1.381-1.119-2.5-2.5-2.5s-2.5,1.119-2.5,2.5v6.244  C98.205,130.074,99.325,131.193,100.705,131.193z"></path><path d="M121.411,119.949c-1.381,0-2.5,1.119-2.5,2.5v6.244c0,1.381,1.119,2.5,2.5,2.5s2.5-1.119,2.5-2.5v-6.244  C123.911,121.068,122.791,119.949,121.411,119.949z"></path><path d="M152.435,134.464h-16.642v-17.85c7.133-0.504,13.71-4.198,17.836-10.107l1.675-2.396c0.781-1.117,0.842-2.587,0.156-3.766  c-0.687-1.178-1.994-1.856-3.352-1.724l-5.351,0.501c-7.535,0.699-15.104-2.213-20.213-7.813c-0.663-0.727-1.602-1.141-2.586-1.141  h-9.252v-8.469h13.609c7.77,0,15.063-3.803,19.513-10.173l1.674-2.397c0.781-1.118,0.842-2.587,0.155-3.765  c-0.687-1.178-1.994-1.852-3.351-1.724l-5.35,0.501c-7.547,0.704-15.104-2.213-20.214-7.813c-0.663-0.727-1.602-1.141-2.586-1.141  h-3.451v-8.468h0.426c7.769,0,15.063-3.803,19.514-10.173l1.674-2.397c0.78-1.118,0.841-2.587,0.154-3.765  c-0.687-1.178-1.982-1.854-3.352-1.723l-5.349,0.501c-7.548,0.709-15.104-2.213-20.215-7.813c-0.663-0.727-1.602-1.141-2.585-1.141  h-4.785l-6.073-3.092c-4.572-2.328-8.428-5.857-11.15-10.207C82.327,5.888,81.206,5.267,80,5.267s-2.327,0.621-2.967,1.643  c-2.722,4.35-6.578,7.879-11.15,10.207l-6.073,3.092h-4.785c-0.984,0-1.922,0.414-2.585,1.141c-5.11,5.601-12.67,8.522-20.214,7.813  l-5.35-0.501c-1.356-0.127-2.665,0.545-3.351,1.724s-0.625,2.647,0.155,3.765l1.674,2.397c4.449,6.37,11.744,10.173,19.513,10.173  h0.426v8.468h-3.45c-0.984,0-1.922,0.414-2.585,1.141c-5.109,5.6-12.666,8.517-20.215,7.813l-5.349-0.501  c-1.353-0.125-2.665,0.545-3.351,1.724s-0.625,2.648,0.155,3.766l1.674,2.396c4.449,6.37,11.743,10.173,19.513,10.173h13.609v8.469  h-9.251c-0.984,0-1.922,0.414-2.585,1.141c-5.11,5.601-12.662,8.515-20.215,7.813l-5.349-0.501  c-1.348-0.129-2.665,0.546-3.351,1.724c-0.686,1.178-0.625,2.647,0.156,3.766l1.674,2.396c4.127,5.909,10.704,9.604,17.836,10.108  v17.85H7.565c-1.933,0-3.5,1.567-3.5,3.5v13.27c0,1.933,1.567,3.5,3.5,3.5H80h72.435c1.933,0,3.5-1.567,3.5-3.5v-13.27  C155.935,136.031,154.368,134.464,152.435,134.464z M48.623,141.464h3.848v6.27H35.442v-6.27H48.623z M32.96,105.12  c8.463,0.72,16.908-2.227,23.114-7.952H80h23.926c6.204,5.724,14.644,8.661,23.114,7.952c-1.972,2.081-4.416,3.628-7.097,4.559  h-8.566H90.458H80H69.541H48.623h-8.566C37.377,108.748,34.932,107.201,32.96,105.12z M39.761,70.141  c8.466,0.714,16.909-2.228,23.114-7.953H80h18.125c6.205,5.725,14.651,8.669,23.114,7.953c-1.972,2.081-4.416,3.628-7.097,4.559H80  H46.858C44.178,73.768,41.733,72.221,39.761,70.141z M80,27.208h7.635c6.204,5.721,14.639,8.665,23.104,7.952  c-1.972,2.081-4.417,3.629-7.098,4.559H80H56.358c-2.681-0.93-5.126-2.478-7.098-4.559c8.463,0.713,16.899-2.231,23.104-7.953H80z   M80,46.719h6.958v8.468H80h-6.959v-8.468H80z M80,81.699h6.958v8.469H80h-6.959v-8.469H80z M107.876,134.464H93.958v-17.785h13.918  V134.464z M80,134.464h-6.959v-17.785H80h6.958v17.785H80z M52.123,116.678h13.917v17.785H52.123V116.678z M59.471,141.464h10.07  H76.5v6.27H59.471V141.464z M83.5,141.464h6.958h10.07v6.27H83.5V141.464z M107.529,141.464h3.848h13.182v6.27h-17.029V141.464z   M114.876,134.464v-17.785h13.917v17.785H114.876z M144.32,106.224c-2.894,2.211-6.471,3.454-10.202,3.454h-1.824h-2.777  c1.218-1.116,2.328-2.364,3.293-3.745l1.097-1.57C137.228,105.559,140.752,106.2,144.32,106.224z M126.003,100.171  c-4.732,0.282-9.426-0.788-13.535-3.004h10.002C123.576,98.261,124.758,99.263,126.003,100.171z M107.707,90.168H93.958v-8.469  h13.749V90.168z M138.519,71.245c-2.894,2.21-6.471,3.454-10.202,3.454h-4.601c1.218-1.116,2.329-2.364,3.294-3.746l1.096-1.57  C131.428,70.58,134.951,71.221,138.519,71.245z M120.203,65.192c-4.726,0.282-9.422-0.789-13.533-3.004h9.999  C117.775,63.281,118.958,64.283,120.203,65.192z M107.707,55.188H93.958v-8.468h13.749V55.188z M125.336,36.265  c-2.895,2.211-6.472,3.454-10.203,3.454h-1.917c1.218-1.116,2.329-2.364,3.294-3.746l0.612-0.876  C119.783,35.841,122.545,36.246,125.336,36.265z M107.046,30.23c-3.818-0.178-7.541-1.222-10.879-3.022h3.172  c0.003,0,0.006,0.001,0.008,0.001c0.005,0,0.009-0.001,0.014-0.001h4.124C104.599,28.309,105.791,29.317,107.046,30.23z M80,14.688  c1.744,2.062,3.724,3.909,5.889,5.52H80h-5.889C76.275,18.597,78.256,16.751,80,14.688z M56.514,27.208h7.315  c-3.337,1.798-7.058,2.84-10.872,3.02C54.211,29.315,55.401,28.308,56.514,27.208z M34.663,36.265  c2.791-0.019,5.552-0.424,8.214-1.168l0.613,0.877c0.965,1.381,2.076,2.629,3.294,3.745h-1.918  C41.134,39.719,37.557,38.476,34.663,36.265z M52.292,46.719h13.749v8.468H52.292V46.719z M43.331,62.188h10.996  c-4.357,2.346-9.369,3.418-14.379,2.95l-0.067-0.006C41.096,64.239,42.25,63.257,43.331,62.188z M21.48,71.245  c3.852-0.027,7.65-0.78,11.201-2.166l1.309,1.875c0.965,1.381,2.076,2.629,3.294,3.745h-5.601  C27.951,74.699,24.374,73.456,21.48,71.245z M52.292,81.699h13.749v8.469H52.292V81.699z M37.53,97.168h10.001  c-4.109,2.215-8.803,3.285-13.535,3.004C35.241,99.263,36.424,98.261,37.53,97.168z M26.093,104.363l1.097,1.57  c0.965,1.381,2.076,2.629,3.294,3.745h-2.777h-1.824c-3.732,0-7.308-1.243-10.202-3.454C19.247,106.2,22.771,105.559,26.093,104.363  z M31.206,116.678h13.917v17.785H31.206V116.678z M11.065,141.464h16.641h0.736v6.27H11.065V141.464z M148.935,147.733h-17.377  v-6.27h0.735h16.642V147.733z"></path></svg></svg> <defs><filter id="colors5834717783"><feColorMatrix type="matrix" values="0 0 0 0 0.22265625  0 0 0 0 0.08203125  0 0 0 0 0.37890625  0 0 0 1 0" class="icon-fecolormatrix"></feColorMatrix></filter> <filter id="colorsf4500889230"><feColorMatrix type="matrix" values="0 0 0 0 0.99609375  0 0 0 0 0.99609375  0 0 0 0 0.99609375  0 0 0 1 0" class="icon-fecolormatrix"></feColorMatrix></filter> <filter id="colorsb6202111805"><feColorMatrix type="matrix" values="0 0 0 0 0  0 0 0 0 0  0 0 0 0 0  0 0 0 1 0" class="icon-fecolormatrix"></feColorMatrix></filter></defs></g></g> <g transform="translate(67,0)"><g data-gra="path-name" fill-rule="" class="tp-name iconsvg-namesvg" transform="translate(0,0)"><g transform="scale(1)"><g><path d="M4.77-30.29L4.77-37.08 20.79-37.08 20.79-30.29 4.77-30.29ZM4.77-17.95L10.44-17.95 10.44-3.87 12.91-4.18 12.91-20.16 2.48-20.16 2.48-27.68 23.36-27.68 22.54-38.25 28.71-38.74 29.07-34.02 34.24-38.2 39.51-31.63 34.56-27.68 38.88-27.68 38.88-20.2 30.11-20.2 31.45-2.83 33.66-3.01 34.92-7.79 40.05-6.43 36.9 5.49 36.9 5.54 25.92 6.39 25.92 6.3 23.89-20.2 19.13-20.2 19.13-16.65 22.5-16.65 22.5-8.96 19.13-8.96 19.13-5 23.54-5.54 24.61 2.7 2.65 5.49 1.57-2.75 4.77-3.15 4.77-17.95ZM29.11-33.75L29.56-27.68 33.98-27.68 29.11-33.75ZM63.67-25.38L67.59-19.35 72.27-28.62 58.41-28.62 58.41-36.63 79.6-36.63 79.6-28.62 71.73-12.96 81.59 2.34 75.15 6.52 67.81-4.86 62.19 6.3 55.8 3.06 63.27-11.83 57.24-21.2 63.67-25.38ZM49.05-27.45L45.05-33.52 53.33-38.92 57.33-32.85 49.05-27.45ZM47.3-14.58L43.34-20.7 51.62-26.1 55.58-19.98 47.3-14.58ZM50.27 5.49L43.97 2.75 50.22-11.56 56.48-8.82 50.27 5.49ZM121.77-32.8L118.39-17.46 111.15-19.04 114.53-34.42 121.77-32.8ZM107.37-18.09L122.27 0.49 116.46 5.08 104.13-10.44 91.75 5.08 85.91 0.49 100.8-18.09 100.8-19.89 89.82-17.41 86.4-32.8 93.64-34.42 95.63-25.33 100.8-26.5 100.8-37.44 107.37-37.44 107.37-18.09ZM132.97-39.2L138.78-37.17 138.01-34.96 144.13-34.96 144.13-27.99 135.54-27.99 134.41-24.75 143.01-24.75 143.01-17.86 138.78-17.86 138.78-14.22 143.78-14.22 143.78-7.29 138.78-7.29 138.78-2.07 142.06-3.38 143.32-0.14 146.88-36.99 163.8-36.99 163.8 6.43 153.85 6.43 153.85-0.81 157.95-0.81 157.95-6.3 149.94-6.3 148.63 6.75 142.69 6.17 143.01 3.01 133.02 6.84 130.77 0.99 132.79 0.22 132.79-7.25 128.34-7.25 128.34-14.22 132.79-14.22 132.79-17.86 129.24-17.86 129.24-23.4 127.62-23.94 132.97-39.2ZM150.62-13.63L157.95-13.63 157.95-17.86 151.06-17.86 150.62-13.63ZM157.95-24.93L157.95-29.2 152.15-29.2 151.74-24.93 157.95-24.93Z" transform="translate(-1.5699999332427979, 39.20000076293945)"></path></g> <!----> <!----> <!----> <!----> <!----> <!----> <!----></g></g> <g data-gra="path-slogan" fill-rule="" class="tp-slogan iconsvg-slogansvg" fill="#391561" transform="translate(31.290000915527344,52.040000915527344)"><!----> <!----> <g transform="scale(1, 1)"><g transform="scale(1)"><path d="M5.67-7.13L5.63-7.13L3.66 0L2.44 0L0.19-8.58L1.41-8.58L3.05-1.59L3.09-1.59L5.02-8.58L6.28-8.58L8.20-1.59L8.25-1.59L9.84-8.58L11.11-8.58L8.86 0L7.64 0L5.67-7.13ZM17.86-3.19L17.86-8.58L19.03-8.58L19.03-3.05Q18.89 0.05 15.52 0.14L15.52 0.14Q12.38 0.05 12.23-2.86L12.23-2.86L12.23-8.58L13.41-8.58L13.41-3.19Q13.45-0.84 15.56-0.80L15.56-0.80Q17.86-0.84 17.86-3.19L17.86-3.19ZM21.98-5.06L26.48-5.06L26.48-8.58L27.66-8.58L27.66 0L26.48 0L26.48-3.98L21.98-3.98L21.98 0L20.81 0L20.81-8.58L21.98-8.58L21.98-5.06ZM35.11 0L34.27-2.48L30.80-2.48L29.91 0L28.73 0L31.97-8.58L33.28-8.58L36.38 0L35.11 0ZM32.53-7.31L31.17-3.52L33.84-3.52L32.58-7.31L32.53-7.31ZM38.81-8.58L43.13-1.64L43.13-8.58L44.25-8.58L44.25 0L42.94 0L38.58-6.94L38.53-6.94L38.53 0L37.41 0L37.41-8.58L38.81-8.58ZM50.53-5.06L55.03-5.06L55.03-8.58L56.20-8.58L56.20 0L55.03 0L55.03-3.98L50.53-3.98L50.53 0L49.36 0L49.36-8.58L50.53-8.58L50.53-5.06ZM63.66-3.19L63.66-8.58L64.83-8.58L64.83-3.05Q64.69 0.05 61.31 0.14L61.31 0.14Q58.17 0.05 58.03-2.86L58.03-2.86L58.03-8.58L59.20-8.58L59.20-3.19Q59.25-0.84 61.36-0.80L61.36-0.80Q63.66-0.84 63.66-3.19L63.66-3.19ZM73.41-4.27L73.41-4.27Q73.22-7.64 70.41-7.83L70.41-7.83Q67.55-7.69 67.41-4.27L67.41-4.27Q67.55-0.94 70.41-0.80L70.41-0.80Q73.22-0.98 73.41-4.27ZM74.58-4.27L74.58-4.27Q74.30 0 70.41 0.14L70.41 0.14Q66.47 0 66.19-4.27L66.19-4.27Q66.42-8.72 70.41-8.81L70.41-8.81Q74.30-8.67 74.58-4.27ZM82.88-8.58L79.64-3.47L79.64 0L78.47 0L78.47-3.47L75.23-8.58L76.59-8.58L79.03-4.45L81.52-8.58L82.88-8.58ZM89.58 0L88.73-2.48L85.27-2.48L84.38 0L83.20 0L86.44-8.58L87.75-8.58L90.84 0L89.58 0ZM87-7.31L85.64-3.52L88.31-3.52L87.05-7.31L87-7.31ZM98.67-4.27L98.67-4.27Q98.48-7.64 95.67-7.83L95.67-7.83Q92.81-7.69 92.67-4.27L92.67-4.27Q92.81-0.94 95.67-0.80L95.67-0.80Q98.48-0.98 98.67-4.27ZM99.84-4.27L99.84-4.27Q99.56 0 95.67 0.14L95.67 0.14Q91.73 0 91.45-4.27L91.45-4.27Q91.69-8.72 95.67-8.81L95.67-8.81Q99.56-8.67 99.84-4.27Z" transform="translate(-0.1875, 8.8125)"></path></g></g></g></g></g><defs v-gra="od"></defs></svg>